<svg xmlns="http://www.w3.org/2000/svg" width="44" height="44" viewBox="0 0 44 44">
  <g id="Groupe_53" data-name="Groupe 53" transform="translate(-763 -69)">
    <rect id="Rectangle_115" data-name="Rectangle 115" width="44" height="44" rx="5" transform="translate(763 69)" fill="#ca1789"/>
    <g id="Composant_12_1" data-name="Composant 12 – 1" transform="translate(774.986 77)">
      <path id="Union_16" data-name="Union 16" d="M5.137,30a4,4,0,0,1-3.3-6.253l5.558-8.152A4.075,4.075,0,0,1,7.884,15a4.075,4.075,0,0,1-.493-.594L1.832,6.253A4,4,0,0,1,5.137,0H16.255a4,4,0,0,1,3.3,6.253L14,14.406a4.075,4.075,0,0,1-.493.594,4.075,4.075,0,0,1,.493.594l5.558,8.152A4,4,0,0,1,16.255,30Z" transform="translate(-1.131)" fill="#fff"/>
      <path id="Union_17" data-name="Union 17" d="M5.032,28.042a4,4,0,0,1-3.386-6.129l4.073-6.48a3.968,3.968,0,0,1,1.516-1.412,3.968,3.968,0,0,1-1.516-1.412L1.646,6.128A4,4,0,0,1,5.033,0h8.145a4,4,0,0,1,3.387,6.128l-4.073,6.481a3.968,3.968,0,0,1-1.516,1.412,3.968,3.968,0,0,1,1.516,1.412l4.073,6.48a4,4,0,0,1-3.387,6.129Z" transform="translate(0.518 0.907)" fill="#ca1789"/>
      <path id="Tracé_5" data-name="Tracé 5" d="M2.876,3.422C3.3,2.916,3.852,0,4.723,0s1.2,2.9,1.635,3.422l2.3,2.72C9.722,7.4,10,7.967,8.218,7.967a13.06,13.06,0,0,0-3.5-.627,8.088,8.088,0,0,0-3,.627C-.062,7.967-.488,7.4.577,6.143Z" transform="translate(14.182 15) rotate(180)" fill="#fff"/>
      <path id="Tracé_6" data-name="Tracé 6" d="M8.915,14.147c.521-.648,6.564-.648,7.085,0l2.277,3.434a1.348,1.348,0,0,1-1,2.2H8.063a1.348,1.348,0,0,1-1-2.2Z" transform="translate(-2.996 6.188)" fill="#fff"/>
    </g>
  </g>
</svg>
