<svg id="Composant_2_4" data-name="Composant 2 – 4" xmlns="http://www.w3.org/2000/svg" width="37.437" height="40" viewBox="0 0 37.437 40">
  <path id="Soustraction_24" data-name="Soustraction 24" d="M-4169.229-2417a8.637,8.637,0,0,1-7.666-4.706H-4188a10.011,10.011,0,0,1-10-10V-2447a10.011,10.011,0,0,1,10-10h14.664a10.012,10.012,0,0,1,10,10v14.707a8.931,8.931,0,0,1,2.773,6.47A8.757,8.757,0,0,1-4169.229-2417Zm-1.27-7.295v2.589h2.89v-2.589h2.425v-2.941h-2.425v-2.588h-2.89v2.588h-2.657v2.941Zm-16.15-31.3a10.01,10.01,0,0,0-10,10v12.489a10.011,10.011,0,0,0,10,10h9.172a9.021,9.021,0,0,1-.418-2.715,9.075,9.075,0,0,1,.174-1.766h-4.047a2.945,2.945,0,0,1-2.943-2.94,2.946,2.946,0,0,1,2.943-2.942h8.214a8.54,8.54,0,0,1,4.324-1.176,8.521,8.521,0,0,1,4.542,1.308V-2445.6a10.01,10.01,0,0,0-10-10Z" transform="translate(4197.999 2457)" fill="#fff"/>
  <rect id="Rectangle_68" data-name="Rectangle 68" width="5.777" height="5.882" rx="2.889" transform="translate(5.2 5.882)" fill="#fff"/>
  <rect id="Rectangle_69" data-name="Rectangle 69" width="5.777" height="5.882" rx="2.889" transform="translate(5.2 23.529)" fill="#fff"/>
  <rect id="Rectangle_70" data-name="Rectangle 70" width="5.777" height="5.882" rx="2.889" transform="translate(5.2 14.706)" fill="#fff"/>
  <rect id="Rectangle_71" data-name="Rectangle 71" width="15.598" height="5.882" rx="2.941" transform="translate(13.288 5.882)" fill="#fff"/>
  <rect id="Rectangle_73" data-name="Rectangle 73" width="15.598" height="5.882" rx="2.941" transform="translate(13.288 14.706)" fill="#fff"/>
</svg>
