<svg xmlns="http://www.w3.org/2000/svg" width="19.137" height="30" viewBox="0 0 19.137 30">
  <g id="Composant_12_4" data-name="Composant 12 – 4" transform="translate(0 0)">
    <path id="Soustraction_25" data-name="Soustraction 25" d="M-3144.862-2566h-11.118a3.939,3.939,0,0,1-3.536-2.131,3.94,3.94,0,0,1,.232-4.123l5.559-8.152a4.033,4.033,0,0,1,.492-.594,4.139,4.139,0,0,1-.492-.594l-5.559-8.153a3.94,3.94,0,0,1-.232-4.122,3.94,3.94,0,0,1,3.536-2.131h11.118a3.941,3.941,0,0,1,3.537,2.131,3.94,3.94,0,0,1-.231,4.122l-5.559,8.153a4.134,4.134,0,0,1-.492.594,4.063,4.063,0,0,1,.492.594l5.559,8.152a3.941,3.941,0,0,1,.231,4.123A3.94,3.94,0,0,1-3144.862-2566Zm-9.573-29.093a3.95,3.95,0,0,0-3.5,2.066,3.948,3.948,0,0,0,.115,4.062l4.073,6.481a3.943,3.943,0,0,0,1.517,1.412,3.934,3.934,0,0,0-1.517,1.412l-4.073,6.48a3.95,3.95,0,0,0-.115,4.063,3.949,3.949,0,0,0,3.5,2.065h8.146a3.95,3.95,0,0,0,3.5-2.066,3.949,3.949,0,0,0-.115-4.063l-4.073-6.48a3.982,3.982,0,0,0-1.516-1.412,3.932,3.932,0,0,0,1.516-1.412l4.073-6.481a3.948,3.948,0,0,0,.115-4.062,3.95,3.95,0,0,0-3.5-2.066Z" transform="translate(3159.989 2596)" fill="#fff"/>
    <path id="Tracé_5" data-name="Tracé 5" d="M2.876,3.422C3.3,2.916,3.852,0,4.723,0s1.2,2.9,1.635,3.422l2.3,2.72C9.722,7.4,10,7.967,8.218,7.967a13.06,13.06,0,0,0-3.5-.627,8.088,8.088,0,0,0-3,.627C-.062,7.967-.488,7.4.577,6.143Z" transform="translate(14.186 15) rotate(180)" fill="#fff"/>
    <path id="Tracé_6" data-name="Tracé 6" d="M8.915,14.147c.521-.648,6.564-.648,7.085,0l2.277,3.434a1.348,1.348,0,0,1-1,2.2H8.063a1.348,1.348,0,0,1-1-2.2Z" transform="translate(-2.992 6.188)" fill="#fff"/>
  </g>
</svg>
