<svg id="Power_off_ICON" data-name="Power off ICON" xmlns="http://www.w3.org/2000/svg" width="17.6" height="20" viewBox="0 0 17.6 20">
  <g id="Soustraction_23" data-name="Soustraction 23" transform="translate(2656 2431.143)" fill="#fff">
    <path d="M -2647.19970703125 -2411.643310546875 C -2651.776611328125 -2411.643310546875 -2655.5 -2415.424072265625 -2655.5 -2420.0712890625 C -2655.5 -2424.718994140625 -2651.776611328125 -2428.500244140625 -2647.19970703125 -2428.500244140625 C -2642.623046875 -2428.500244140625 -2638.899658203125 -2424.718994140625 -2638.899658203125 -2420.0712890625 C -2638.899658203125 -2415.424072265625 -2642.623046875 -2411.643310546875 -2647.19970703125 -2411.643310546875 Z M -2647.19970703125 -2427.357177734375 C -2651.208251953125 -2427.357177734375 -2654.469482421875 -2423.928466796875 -2654.469482421875 -2419.7138671875 C -2654.469482421875 -2415.499755859375 -2651.208251953125 -2412.071533203125 -2647.19970703125 -2412.071533203125 C -2643.191650390625 -2412.071533203125 -2639.930908203125 -2415.499755859375 -2639.930908203125 -2419.7138671875 C -2639.930908203125 -2423.928466796875 -2643.191650390625 -2427.357177734375 -2647.19970703125 -2427.357177734375 Z" stroke="none"/>
    <path d="M -2639.44580078125 -2419.205078125 C -2639.415283203125 -2419.489501953125 -2639.399658203125 -2419.778564453125 -2639.399658203125 -2420.0712890625 C -2639.399658203125 -2424.443359375 -2642.898681640625 -2428.000244140625 -2647.19970703125 -2428.000244140625 C -2651.500732421875 -2428.000244140625 -2655 -2424.443359375 -2655 -2420.0712890625 C -2655 -2419.783935546875 -2654.98486328125 -2419.499755859375 -2654.955322265625 -2419.22021484375 C -2654.96484375 -2419.3837890625 -2654.969482421875 -2419.548095703125 -2654.969482421875 -2419.7138671875 C -2654.969482421875 -2424.2041015625 -2651.48388671875 -2427.857177734375 -2647.19970703125 -2427.857177734375 C -2642.916015625 -2427.857177734375 -2639.430908203125 -2424.2041015625 -2639.430908203125 -2419.7138671875 C -2639.430908203125 -2419.54296875 -2639.43603515625 -2419.373291015625 -2639.44580078125 -2419.205078125 M -2647.19970703125 -2411.143310546875 C -2652.05224609375 -2411.143310546875 -2656 -2415.1484375 -2656 -2420.0712890625 C -2656 -2424.99462890625 -2652.05224609375 -2429.000244140625 -2647.19970703125 -2429.000244140625 C -2642.347412109375 -2429.000244140625 -2638.399658203125 -2424.99462890625 -2638.399658203125 -2420.0712890625 C -2638.399658203125 -2415.1484375 -2642.347412109375 -2411.143310546875 -2647.19970703125 -2411.143310546875 Z M -2647.19970703125 -2426.857177734375 C -2650.9326171875 -2426.857177734375 -2653.969482421875 -2423.652587890625 -2653.969482421875 -2419.7138671875 C -2653.969482421875 -2415.775634765625 -2650.9326171875 -2412.571533203125 -2647.19970703125 -2412.571533203125 C -2643.46728515625 -2412.571533203125 -2640.430908203125 -2415.775634765625 -2640.430908203125 -2419.7138671875 C -2640.430908203125 -2423.652587890625 -2643.46728515625 -2426.857177734375 -2647.19970703125 -2426.857177734375 Z" stroke="none" fill="#fff"/>
  </g>
  <g id="Rectangle_37" data-name="Rectangle 37" transform="translate(6.769)" fill="#fff" stroke="#fff" stroke-width="1">
    <rect width="4.062" height="10.714" rx="2.031" stroke="none"/>
    <rect x="0.5" y="0.5" width="3.062" height="9.714" rx="1.531" fill="none"/>
  </g>
</svg>
