<svg xmlns="http://www.w3.org/2000/svg" width="26.25" height="30" viewBox="0 0 26.25 30">
  <g id="Groupe_43" data-name="Groupe 43" transform="translate(-120 -266)">
    <path id="Union_7" data-name="Union 7" d="M0,25.063V22.784H2.541l2.54-2.279A9.334,9.334,0,0,1,3.75,15.688V11.653A9.376,9.376,0,0,1,12,2.346V1.125a1.125,1.125,0,0,1,2.25,0V2.346a9.376,9.376,0,0,1,8.25,9.308v4.035a9.33,9.33,0,0,1-1.331,4.818l2.541,2.279H26.25v2.279Z" transform="translate(120 266)" fill="#fff"/>
    <path id="Soustraction_16" data-name="Soustraction 16" d="M3.75,3.8A3.778,3.778,0,0,1,0,0H7.5A3.778,3.778,0,0,1,3.75,3.8Z" transform="translate(129.375 292.203)" fill="#fff"/>
  </g>
</svg>
